<?xml version="1.0"?>
<svg xmlns="http://www.w3.org/2000/svg" height="512px" viewBox="0 0 512 512" width="512px"><path d="m512 373.992188v-236c0-7.535157-4.308594-14.511719-11.054688-17.890626l-236-118c-5.777343-2.886718-12.449218-2.71875-17.890624 0l-236 118c-6.71875 3.359376-11.054688 10.324219-11.054688 17.890626v236c0 7.535156 4.289062 14.507812 11.054688 17.890624l236 118c5.578124 2.785157 12.265624 2.8125 17.890624 0l236-118c6.746094-3.375 11.054688-10.34375 11.054688-17.890624zm-168.390625-96.554688c-9.878906-4.941406-21.890625-.9375-26.832031 8.941406-4.9375 9.878906-.933594 21.894532 8.945312 26.835938l121.554688 60.777344-171.277344 85.640624v-191.28125l196-98v171.277344zm-148.386719 8.945312c-4.941406-9.882812-16.953125-13.886718-26.832031-8.945312l-128.390625 64.195312v-171.28125l196 98v191.277344l-171.277344-85.636718 121.554688-60.777344c9.878906-4.941406 13.882812-16.953125 8.945312-26.832032zm60.777344-89.058593c11.046875 0 20-8.953125 20-20v-124.972657l171.277344 85.640626-191.277344 95.640624-191.277344-95.640624 171.277344-85.640626v124.972657c0 11.046875 8.953125 20 20 20zm0 0" fill="#FFFFFF"/></svg>

